<svg xmlns="http://www.w3.org/2000/svg" width="96" height="96" viewBox="0 0 96 96">
  <!-- background -->
  <rect x="3" y="3" width="90" height="90" rx="20" fill="#fdeee4"/>

  <!-- ears (outer) -->
  <path d="M31 44 L20 9 L48 30 Z" fill="#e07436" stroke="#3b2417" stroke-width="2.6" stroke-linejoin="round"/>
  <path d="M65 44 L76 9 L48 30 Z" fill="#e07436" stroke="#3b2417" stroke-width="2.6" stroke-linejoin="round"/>
  <!-- ear tips (dark) -->
  <path d="M20 9 L23.5 20 L28.5 15 Z" fill="#3b2417"/>
  <path d="M76 9 L72.5 20 L67.5 15 Z" fill="#3b2417"/>

  <!-- face -->
  <path d="M31 41 L22 53 L29 67 L48 83 L67 67 L74 53 L65 41 L48 49 Z"
        fill="#e07436" stroke="#3b2417" stroke-width="2.6" stroke-linejoin="round"/>

  <!-- white muzzle / chin -->
  <path d="M40 57 L56 57 C54 70 52 78 48 83 C44 78 42 70 40 57 Z" fill="#ffffff"/>

  <!-- eyes -->
  <ellipse cx="39" cy="53" rx="2.9" ry="3.5" fill="#3b2417"/>
  <ellipse cx="57" cy="53" rx="2.9" ry="3.5" fill="#3b2417"/>
  <!-- nose -->
  <path d="M44.5 60 L51.5 60 L48 66 Z" fill="#3b2417" stroke="#3b2417" stroke-width="1.6" stroke-linejoin="round"/>

  <!-- camera-flash sparkle -->
  <path d="M68 25 L70.4 33 L78 35.5 L70.4 38 L68 46 L65.6 38 L58 35.5 L65.6 33 Z"
        fill="#ffffff" stroke="#e07436" stroke-width="1.7" stroke-linejoin="round"/>
</svg>
